<svg xmlns="http://www.w3.org/2000/svg" xmlns:xlink="http://www.w3.org/1999/xlink" viewBox="0 0 1250.43 338.23"><defs><style>.cls-1{fill:none;}.cls-2{fill:#d54c2c;}.cls-3{clip-path:url(#clip-path);}</style><clipPath id="clip-path" transform="translate(-37.42 -26.35)"><rect class="cls-1" width="1287.85" height="365.89"/></clipPath></defs><title>Asset 2</title><g id="Layer_2" data-name="Layer 2"><g id="Layer_1-2" data-name="Layer 1"><rect class="cls-2" y="2.75" width="332.63" height="332.63"/><g class="cls-3"><path class="cls-2" d="M1247.47,361.73V88.58h40.38V29.2H1140.58V88.58H1181V361.73ZM1104.3,29.2h-66.51V295.7c0,8.07-3.8,11.88-11.87,11.88h-7.13c-8.08,0-11.88-3.81-11.88-11.88V29.2h-66.5V302.83c0,41.32,20.42,61.75,61.75,61.75h40.38c41.33,0,61.76-20.43,61.76-61.75Zm-269.68,66V295.7c0,8.07-3.8,11.88-11.88,11.88h-9.5c-8.07,0-11.87-3.81-11.87-11.88V95.23c0-8.07,3.8-11.87,11.87-11.87h9.5c8.08,0,11.88,3.8,11.88,11.87m66.51,207.6V88.11c0-41.33-20.43-61.76-61.76-61.76H796.62c-41.33,0-61.76,20.43-61.76,61.76V302.83c0,41.32,20.43,61.75,61.76,61.75h42.75c41.33,0,61.76-20.43,61.76-61.75m-299-82.19h16.62c8.08,0,11.88,3.81,11.88,11.88v60.33c0,8.08-3.8,11.88-11.88,11.88H602.14ZM629.69,98.08v55.11c0,8.08-3.8,11.88-11.88,11.88H602.14V86.21h15.67c8.08,0,11.88,3.8,11.88,11.87m38.48,91.69c17.57-6.65,27.55-20.9,27.55-49.41V91c0-41.33-20.43-61.76-61.76-61.76H536.11V361.73h98.8c41.33,0,61.76-20.43,61.76-61.76V232.52c0-24.23-8.55-37.05-28.5-42.75M408.51,110l15.21,145.36H393.79ZM457,29.2H366.23l-43.7,332.53h60.33l4.75-48.45h41.8l5.23,48.45h66Z" transform="translate(-37.42 -26.35)"/></g></g></g></svg>