<svg xmlns="http://www.w3.org/2000/svg" xmlns:xlink="http://www.w3.org/1999/xlink" viewBox="0 0 1273.1 221.59"><defs><style>.cls-1{fill:none;}.cls-2{fill:#d3cc27;}.cls-3{clip-path:url(#clip-path);}</style><clipPath id="clip-path"><rect class="cls-1" width="1273.09" height="221.59"/></clipPath></defs><title>Asset 1</title><g id="Layer_2" data-name="Layer 2"><g id="Layer_1-2" data-name="Layer 1"><rect class="cls-2" y="1.8" width="217.92" height="217.92"/><g class="cls-3"><path class="cls-2" d="M1255.67,106.75l-37.35-27.7c-5.29-3.73-7.47-7.16-7.47-14V44.51c0-5.29,2.49-7.78,7.78-7.78h3.43c5.29,0,7.77,2.49,7.77,7.78V80.3h42.64V40.46C1272.47,13.38,1259.09,0,1232,0h-23.65c-27.08,0-40.46,13.38-40.46,40.46V75c0,15.56,4,24.58,17.43,34.23l37.35,27.7c5.29,3.73,7.47,7.16,7.47,14v26.15c0,5.29-2.49,7.78-7.78,7.78h-4c-5.29,0-7.78-2.49-7.78-7.78V134.76H1167.9v46.37c0,27.08,13.38,40.46,40.46,40.46h24.28c27.07,0,40.46-13.38,40.46-40.46V141c0-16.18-4-24.58-17.43-34.23M1053.28,1.87H990.41V219.72h34.86V75.32l16.5,144.4h41.08l16.49-142.85V219.72h43V1.87h-63.18L1066,133.52ZM906.82,54.77l10,95.24h-19.6Zm31.75-52.9H879.12L850.49,219.72H890L893.13,188h27.39l3.42,31.74H967.2ZM783.83,47.62V92.43c0,5.29-2.49,7.78-7.78,7.78H765.47V39.84h10.58c5.29,0,7.78,2.49,7.78,7.78m24.9,69.09c11.82-4.36,18.67-13.7,18.67-32.37v-42c0-27.08-13.38-40.46-40.46-40.46h-65V219.72h43.57V137.25h10.89c5.29,0,7.78,2.49,7.78,7.78v74.69h43.57v-75c0-15.87-5.6-24.28-19-28M653.52,133.2v43.26c0,5.29-2.49,7.78-7.78,7.78h-7.15c-5.3,0-7.79-2.49-7.79-7.78V45.13c0-5.29,2.49-7.78,7.79-7.78h6.22c5.29,0,7.78,2.49,7.78,7.78v37h42.95V40.46C695.54,13.38,682.16,0,655.08,0H627.69c-27.07,0-40.46,13.38-40.46,40.46V181.13c0,27.08,13.39,40.46,40.46,40.46h28c27.08,0,40.46-13.38,40.46-40.46V96.79H639.83V133.2ZM518.21,45.13V176.46c0,5.29-2.49,7.78-7.78,7.78H504.2c-5.29,0-7.78-2.49-7.78-7.78V45.13c0-5.29,2.49-7.78,7.78-7.78h6.23c5.29,0,7.78,2.49,7.78,7.78m43.57,136V40.46C561.78,13.38,548.39,0,521.32,0h-28c-27.08,0-40.46,13.38-40.46,40.46V181.13c0,27.08,13.38,40.46,40.46,40.46h28c27.07,0,40.46-13.38,40.46-40.46M383.67,47.62V92.43c0,5.29-2.49,7.78-7.78,7.78H365.3V39.84h10.59c5.29,0,7.78,2.49,7.78,7.78m24.9,69.09c11.82-4.36,18.67-13.7,18.67-32.37v-42c0-27.08-13.38-40.46-40.46-40.46h-65V219.72H365.3V137.25h10.9c5.29,0,7.78,2.49,7.78,7.78v74.69h43.57v-75c0-15.87-5.6-24.28-19-28M253.7,47V99c0,5.29-2.49,7.78-7.78,7.78h-9.33V39.22h9.33c5.29,0,7.78,2.48,7.78,7.78m-17.11,97.1h20.22c27.08,0,40.46-13.39,40.46-40.46V42.33c0-27.08-13.38-40.46-40.46-40.46H193V219.72h43.57Z"/></g></g></g></svg>