<svg xmlns="http://www.w3.org/2000/svg" xmlns:xlink="http://www.w3.org/1999/xlink" viewBox="0 0 1305.85 292.17"><defs><style>.cls-1{fill:none;}.cls-2{fill:#16a4be;}.cls-3{clip-path:url(#clip-path);}</style><clipPath id="clip-path" transform="translate(0 0)"><rect class="cls-1" width="1305.85" height="292.17"/></clipPath></defs><title>Asset 3</title><g id="Layer_2" data-name="Layer 2"><g id="Layer_1-2" data-name="Layer 1"><rect class="cls-2" y="2.38" width="287.33" height="287.33"/><g class="cls-3"><path class="cls-2" d="M1282.87,140.75l-49.24-36.52c-7-4.93-9.85-9.44-9.85-18.47V58.68c0-7,3.28-10.26,10.26-10.26h4.51c7,0,10.26,3.28,10.26,10.26v47.19H1305V53.34C1305,17.64,1287.38,0,1251.68,0H1220.5c-35.7,0-53.35,17.64-53.35,53.34V98.89c0,20.52,5.34,32.42,23,45.14l49.24,36.52c7,4.93,9.85,9.44,9.85,18.47v34.47c0,7-3.28,10.25-10.26,10.25h-5.33c-7,0-10.26-3.28-10.26-10.25V177.68h-56.22v61.14c0,35.7,17.65,53.35,53.35,53.35h32c35.7,0,53.35-17.65,53.35-53.35V185.89c0-21.34-5.34-32.42-23-45.14m-181.37,149V53.75h34.88V2.46H1009.17V53.75h34.89v236ZM977.71,2.46H920.26V289.7h57.45ZM800.93,51.7h11.49c11.08,0,16,4.93,16,16V224.46c0,11.08-4.93,16-16,16H800.93Zm-57.44,238h80.84c41.44,0,61.55-20.1,61.55-61.55V64c0-41.44-20.11-61.55-61.55-61.55H743.49ZM602.62,2.46V289.7H710.13V238.41H660.07V169.47h47.19V118.18H660.07V53.75h49.24V2.46ZM511,62.78v59.09c0,7-3.29,10.26-10.27,10.26H486.82V52.52h13.95c7,0,10.27,3.29,10.27,10.26m32.82,91.1c15.59-5.75,24.62-18,24.62-42.68V55.81c0-35.7-17.64-53.35-53.34-53.35H429.38V289.7h57.44V181h14.37c7,0,10.25,3.28,10.25,10.26V289.7h57.45V190.81c0-20.93-7.39-32-25-36.93m-204.84,9v69.76c0,7-3.28,10.25-10.26,10.25h-7.38c-7,0-10.26-3.28-10.26-10.25V59.5c0-7,3.28-10.26,10.26-10.26h6.56c7,0,10.26,3.28,10.26,10.26v61.14h56.63V53.34C394.83,17.64,377.18,0,341.48,0H307c-35.7,0-53.35,17.64-53.35,53.34V238.82c0,35.7,17.65,53.35,53.35,53.35H342.3c35.7,0,53.35-17.65,53.35-53.35V162.91Z" transform="translate(0 0)"/></g></g></g></svg>